<svg width="125" height="121" viewBox="0 0 125 121" fill="none" xmlns="http://www.w3.org/2000/svg">
<path d="M66.84 2.75999H82.584V95.816C82.584 99.4 82.8827 101.704 83.48 102.728C84.1627 103.667 85.784 104.136 88.344 104.136C88.9413 104.136 89.88 104.136 91.16 104.136C92.5253 104.136 93.976 104.136 95.512 104.136C97.1333 104.136 98.6267 104.136 99.992 104.136C101.357 104.136 102.339 104.136 102.936 104.136C104.728 104.136 106.051 103.496 106.904 102.216C107.757 100.936 108.355 98.632 108.696 95.304C109.123 91.976 109.464 87.3253 109.72 81.352C111.597 82.7173 113.944 84.04 116.76 85.32C119.576 86.6 122.051 87.496 124.184 88.008C123.672 95.5173 122.733 101.533 121.368 106.056C120.088 110.579 118.125 113.864 115.48 115.912C112.835 117.96 109.165 118.984 104.472 118.984C103.875 118.984 102.936 118.984 101.656 118.984C100.376 118.984 98.968 118.984 97.432 118.984C95.896 118.984 94.36 118.984 92.824 118.984C91.3733 118.984 90.008 118.984 88.728 118.984C87.5333 118.984 86.6373 118.984 86.04 118.984C81.0907 118.984 77.208 118.301 74.392 116.936C71.576 115.571 69.6133 113.181 68.504 109.768C67.3947 106.355 66.84 101.619 66.84 95.56V2.75999ZM5.528 24.008H47.896V37.832H5.528V24.008ZM24.856 67.656L40.088 49.48V120.52H24.856V67.656ZM24.856 0.327995H40.088V30.408H24.856V0.327995ZM38.552 52.296C39.7467 53.1493 41.4533 54.5147 43.672 56.392C45.8907 58.184 48.2373 60.1893 50.712 62.408C53.272 64.6267 55.576 66.6747 57.624 68.552C59.7573 70.344 61.2507 71.7093 62.104 72.648L52.632 85.192C51.352 83.4 49.7307 81.3947 47.768 79.176C45.8907 76.872 43.8853 74.5253 41.752 72.136C39.6187 69.7467 37.528 67.4853 35.48 65.352C33.432 63.2187 31.6827 61.4267 30.232 59.976L38.552 52.296ZM43.8 24.008H46.872L49.432 23.368L58.136 29C54.808 37.448 50.456 45.512 45.08 53.192C39.7893 60.7867 33.944 67.656 27.544 73.8C21.144 79.944 14.6587 84.9787 8.088 88.904C7.66133 87.5387 6.97867 85.9173 6.04 84.04C5.18667 82.0773 4.29067 80.2 3.352 78.408C2.41333 76.616 1.56 75.2507 0.792 74.312C5.31467 71.9227 9.752 69.0213 14.104 65.608C18.456 62.1947 22.552 58.3973 26.392 54.216C30.232 50.0347 33.6453 45.5973 36.632 40.904C39.704 36.2107 42.0933 31.4747 43.8 26.696V24.008Z" fill="#FAFAFA"/>
</svg>
