<svg width="119" height="122" viewBox="0 0 119 122" fill="none" xmlns="http://www.w3.org/2000/svg">
<path d="M6.544 13.36H109.712V24.624H6.544V13.36ZM13.328 29.36H103.056V39.984H13.328V29.36ZM0.656 44.72H115.472V56.24H0.656V44.72ZM0.4 74.544H116.112V85.936H0.4V74.544ZM49.808 19.888H65.68V50.48H49.808V19.888ZM77.328 0.943993L94.224 4.272C92.432 6.83199 90.6827 9.22133 88.976 11.44C87.2693 13.6587 85.776 15.5787 84.496 17.2L71.184 13.744C72.2933 11.8667 73.4027 9.73333 74.512 7.34399C75.7067 4.95466 76.6453 2.82133 77.328 0.943993ZM0.0160003 92.72C5.05067 92.464 10.768 92.208 17.168 91.952C23.6533 91.6107 30.5227 91.2693 37.776 90.928C45.1147 90.5013 52.4533 90.0747 59.792 89.648L59.664 100.016C52.752 100.528 45.7973 101.083 38.8 101.68C31.8027 102.192 25.104 102.704 18.704 103.216C12.304 103.643 6.50133 104.027 1.296 104.368L0.0160003 92.72ZM25.872 61.488H40.592V108.08C40.592 111.493 40.1227 114.053 39.184 115.76C38.3307 117.467 36.7093 118.747 34.32 119.6C31.8453 120.453 28.9013 120.965 25.488 121.136C22.0747 121.392 17.9787 121.52 13.2 121.52C12.7733 119.643 12.1333 117.595 11.28 115.376C10.512 113.243 9.65867 111.365 8.72 109.744C10.6827 109.829 12.6453 109.915 14.608 110C16.656 110 18.448 110 19.984 110C21.6053 109.915 22.7147 109.872 23.312 109.872C24.2507 109.872 24.8907 109.744 25.232 109.488C25.6587 109.147 25.872 108.549 25.872 107.696V61.488ZM49.424 55.856L58.256 64.816C53.4773 65.9253 48.1013 66.9067 42.128 67.76C36.1547 68.528 30.0533 69.168 23.824 69.68C17.5947 70.192 11.6213 70.5333 5.904 70.704C5.648 69.424 5.17867 67.888 4.496 66.096C3.89867 64.304 3.30133 62.768 2.704 61.488C8.25067 61.232 13.8827 60.848 19.6 60.336C25.4027 59.824 30.9067 59.184 36.112 58.416C41.4027 57.648 45.84 56.7947 49.424 55.856ZM60.688 58.032H75.28C75.6213 64.8587 76.56 71.2587 78.096 77.232C79.7173 83.2053 81.7653 88.496 84.24 93.104C86.8 97.6267 89.616 101.168 92.688 103.728C95.76 106.203 99.0027 107.44 102.416 107.44C104.037 107.44 105.104 106.757 105.616 105.392C106.213 104.027 106.683 101.509 107.024 97.84C108.475 99.2053 110.267 100.4 112.4 101.424C114.533 102.448 116.539 103.259 118.416 103.856C117.648 108.72 116.581 112.389 115.216 114.864C113.936 117.339 112.187 119.045 109.968 119.984C107.835 120.923 105.061 121.392 101.648 121.392C95.8453 121.392 90.5547 119.771 85.776 116.528C80.9973 113.285 76.816 108.805 73.232 103.088C69.648 97.3707 66.7893 90.672 64.656 82.992C62.5227 75.312 61.2 66.992 60.688 58.032ZM94.864 85.168L107.92 89.648C103.995 94.768 99.1307 99.376 93.328 103.472C87.6107 107.483 81.3387 110.939 74.512 113.84C67.7707 116.827 60.8587 119.344 53.776 121.392C53.3493 120.283 52.6667 118.96 51.728 117.424C50.8747 115.973 49.936 114.48 48.912 112.944C47.888 111.408 46.992 110.171 46.224 109.232C52.7947 107.867 59.1947 106.075 65.424 103.856C71.6533 101.552 77.328 98.864 82.448 95.792C87.6533 92.72 91.792 89.1787 94.864 85.168ZM80.016 64.56L88.464 55.728C91.024 56.5813 93.6693 57.648 96.4 58.928C99.1307 60.208 101.733 61.5733 104.208 63.024C106.683 64.3893 108.688 65.7547 110.224 67.12L101.392 76.72C99.9413 75.3547 98.0213 73.9467 95.632 72.496C93.2427 71.0453 90.6827 69.5947 87.952 68.144C85.2213 66.6933 82.576 65.4987 80.016 64.56ZM24.336 5.67999L37.776 1.2C39.3973 2.99199 40.9333 5.03999 42.384 7.34399C43.92 9.56266 45.0293 11.5253 45.712 13.232L31.504 18.48C30.992 16.688 30.0533 14.5973 28.688 12.208C27.3227 9.73333 25.872 7.55733 24.336 5.67999Z" fill="#FAFAFA"/>
</svg>
