<svg width="121" height="121" viewBox="0 0 121 121" fill="none" xmlns="http://www.w3.org/2000/svg">
<path d="M50.504 55.24C55.9653 68.6373 64.456 79.6453 75.976 88.264C87.496 96.8827 102.259 102.771 120.264 105.928C119.155 107.037 117.96 108.403 116.68 110.024C115.4 111.731 114.205 113.48 113.096 115.272C111.987 117.064 111.091 118.643 110.408 120.008C97.864 117.192 86.8987 113.096 77.512 107.72C68.2107 102.344 60.2747 95.6027 53.704 87.496C47.1333 79.3893 41.6293 69.9173 37.192 59.08L50.504 55.24ZM89.8 47.432H92.744L95.56 46.792L106.056 51.272C103.496 60.9147 100.04 69.448 95.688 76.872C91.336 84.296 86.1733 90.7813 80.2 96.328C74.2267 101.875 67.6133 106.611 60.36 110.536C53.192 114.461 45.4267 117.704 37.064 120.264C36.2107 118.301 34.9307 116.04 33.224 113.48C31.6027 110.92 29.9813 108.872 28.36 107.336C35.8693 105.373 42.8667 102.728 49.352 99.4C55.9227 96.072 61.896 92.0187 67.272 87.24C72.648 82.4613 77.256 77 81.096 70.856C84.936 64.6267 87.8373 57.7573 89.8 50.248V47.432ZM5.064 19.272H116.808V34.248H5.064V19.272ZM41.416 47.432H91.336V62.28H36.936L41.416 47.432ZM37.064 0.199997H53.064C52.9787 3.10133 52.808 6.77066 52.552 11.208C52.296 15.56 51.8693 20.5093 51.272 26.056C50.6747 31.6027 49.7787 37.4907 48.584 43.72C47.4747 49.864 45.9813 56.1787 44.104 62.664C42.2267 69.064 39.88 75.4213 37.064 81.736C34.3333 88.0507 31.0053 94.1093 27.08 99.912C23.1547 105.715 18.5467 111.005 13.256 115.784C11.72 113.821 9.8 111.901 7.496 110.024C5.192 108.147 2.71733 106.44 0.072 104.904C5.27733 100.552 9.75733 95.7733 13.512 90.568C17.352 85.2773 20.5947 79.688 23.24 73.8C25.8853 67.912 28.0613 62.024 29.768 56.136C31.4747 50.1627 32.7973 44.3173 33.736 38.6C34.6747 32.8827 35.3573 27.5493 35.784 22.6C36.2107 17.5653 36.5093 13.128 36.68 9.28799C36.8507 5.44799 36.9787 2.41866 37.064 0.199997Z" fill="#FAFAFA"/>
</svg>
