<svg width="498" height="123" viewBox="0 0 498 123" fill="none" xmlns="http://www.w3.org/2000/svg">
<path d="M18.736 1.84H32.304V121.008H18.736V1.84ZM2.48 43.952H44.592V58.288H2.48V43.952ZM18.608 51.504L27.184 55.728C26.16 59.9947 24.9227 64.5173 23.472 69.296C22.1067 73.9893 20.5707 78.6827 18.864 83.376C17.1573 88.0693 15.3227 92.5067 13.36 96.688C11.4827 100.869 9.52 104.496 7.472 107.568C6.96 105.947 6.27733 104.197 5.424 102.32C4.656 100.357 3.80267 98.4373 2.864 96.56C2.01067 94.5973 1.15733 92.9333 0.304 91.568C2.864 88.4107 5.296 84.528 7.6 79.92C9.98933 75.2267 12.1227 70.4053 14 65.456C15.9627 60.4213 17.4987 55.7707 18.608 51.504ZM32.688 59.312C33.456 60.1653 34.608 61.616 36.144 63.664C37.7653 65.712 39.472 67.9733 41.264 70.448C43.1413 72.8373 44.848 75.0987 46.384 77.232C47.92 79.28 48.9867 80.7733 49.584 81.712L39.856 93.488C39.088 91.6107 38.1067 89.4347 36.912 86.96C35.8027 84.4 34.5227 81.7547 33.072 79.024C31.7067 76.2933 30.3413 73.7333 28.976 71.344C27.6107 68.8693 26.4587 66.7787 25.52 65.072L32.688 59.312ZM2.352 11.696L12.336 9.26399C13.4453 12.2507 14.4267 15.536 15.28 19.12C16.2187 22.6187 16.9867 26.032 17.584 29.36C18.1813 32.6027 18.5653 35.5467 18.736 38.192L8.112 40.88C8.02667 38.2347 7.68533 35.248 7.088 31.92C6.576 28.592 5.89333 25.136 5.04 21.552C4.272 17.968 3.376 14.6827 2.352 11.696ZM37.808 8.49599L49.968 11.056C48.944 14.384 47.8773 17.8827 46.768 21.552C45.6587 25.136 44.5493 28.592 43.44 31.92C42.416 35.1627 41.392 38.064 40.368 40.624L31.28 37.936C32.1333 35.2907 32.9867 32.2613 33.84 28.848C34.6933 25.4347 35.4613 21.936 36.144 18.352C36.912 14.768 37.4667 11.4827 37.808 8.49599ZM51.504 10.672H118.32V21.552H51.504V10.672ZM54.704 26.672H115.504V36.912H54.704V26.672ZM47.92 42.544H121.648V53.552H47.92V42.544ZM76.464 1.45599H90.928V48.688H76.464V1.45599ZM54.704 58.8H103.344V69.68H68.912V121.52H54.704V58.8ZM99.76 58.8H114.224V107.696C114.224 110.853 113.84 113.328 113.072 115.12C112.304 116.912 110.811 118.32 108.592 119.344C106.373 120.283 103.728 120.88 100.656 121.136C97.584 121.392 94 121.477 89.904 121.392C89.648 119.515 89.136 117.424 88.368 115.12C87.6 112.901 86.7893 110.939 85.936 109.232C88.3253 109.317 90.672 109.403 92.976 109.488C95.28 109.488 96.8587 109.445 97.712 109.36C98.5653 109.36 99.12 109.232 99.376 108.976C99.632 108.635 99.76 108.123 99.76 107.44V58.8ZM62.64 75.824H104.752V85.936H62.64V75.824ZM62.64 92.08H104.752V102.064H62.64V92.08ZM135.6 27.952H233.776V43.696H135.6V27.952ZM227.376 27.952H243.376C243.376 27.952 243.376 28.4213 243.376 29.36C243.376 30.2987 243.333 31.3653 243.248 32.56C243.248 33.6693 243.205 34.5653 243.12 35.248C242.437 48.048 241.755 59.0133 241.072 68.144C240.389 77.1893 239.621 84.6987 238.768 90.672C238 96.6453 237.061 101.381 235.952 104.88C234.928 108.379 233.691 110.981 232.24 112.688C230.277 115.163 228.272 116.869 226.224 117.808C224.261 118.747 221.872 119.387 219.056 119.728C216.752 120.069 213.723 120.24 209.968 120.24C206.213 120.24 202.373 120.197 198.448 120.112C198.363 117.808 197.808 115.12 196.784 112.048C195.845 108.976 194.651 106.373 193.2 104.24C197.296 104.581 201.051 104.795 204.464 104.88C207.963 104.88 210.565 104.88 212.272 104.88C213.552 104.88 214.661 104.752 215.6 104.496C216.539 104.24 217.392 103.685 218.16 102.832C219.269 101.723 220.293 99.5893 221.232 96.432C222.171 93.1893 222.981 88.7093 223.664 82.992C224.432 77.2747 225.115 70.1493 225.712 61.616C226.309 52.9973 226.864 42.8 227.376 31.024V27.952ZM174.896 1.45599H191.28V27.952C191.28 33.7547 190.981 39.9413 190.384 46.512C189.872 53.0827 188.763 59.7813 187.056 66.608C185.349 73.3493 182.747 80.048 179.248 86.704C175.749 93.36 171.099 99.7173 165.296 105.776C159.579 111.835 152.368 117.296 143.664 122.16C142.811 120.88 141.659 119.429 140.208 117.808C138.843 116.187 137.349 114.651 135.728 113.2C134.192 111.749 132.784 110.555 131.504 109.616C139.525 105.349 146.139 100.571 151.344 95.28C156.635 89.9893 160.859 84.4853 164.016 78.768C167.173 72.9653 169.52 67.12 171.056 61.232C172.677 55.2587 173.701 49.456 174.128 43.824C174.64 38.1067 174.896 32.816 174.896 27.952V1.45599ZM284.08 105.776H351.536V117.552H284.08V105.776ZM277.168 85.424H359.344V121.136H343.472V97.072H292.272V121.52H277.168V85.424ZM267.568 14.768H368.56V25.904H267.568V14.768ZM263.984 46.64H372.4V57.904H263.984V46.64ZM275.888 30.768H360.24V41.648H275.888V30.768ZM259.76 68.784H376.368V80.56H259.76V68.784ZM309.68 20.144H325.552V73.648H309.68V20.144ZM283.824 4.52799L297.776 1.072C299.227 2.94933 300.549 5.12533 301.744 7.6C303.024 10.0747 304.005 12.2507 304.688 14.128L289.968 18.48C289.541 16.6027 288.731 14.3413 287.536 11.696C286.427 9.05066 285.189 6.66133 283.824 4.52799ZM277.808 59.056L292.016 56.112C293.296 57.8187 294.491 59.7813 295.6 62C296.795 64.2187 297.605 66.1813 298.032 67.888L283.312 71.472C282.885 69.68 282.16 67.632 281.136 65.328C280.112 63.024 279.003 60.9333 277.808 59.056ZM336.816 0.943993L353.072 3.504C351.536 6.32 350.043 8.88 348.592 11.184C347.141 13.488 345.776 15.536 344.496 17.328L330.672 14.64C331.696 12.592 332.805 10.288 334 7.728C335.28 5.16799 336.219 2.90666 336.816 0.943993ZM343.472 56.24L359.216 58.544C357.851 60.9333 356.571 63.1093 355.376 65.072C354.267 67.0347 353.285 68.7413 352.432 70.192L337.968 68.016C338.907 66.224 339.888 64.2613 340.912 62.128C342.021 59.9093 342.875 57.9467 343.472 56.24ZM409.008 9.77599H487.472V24.496H409.008V9.77599ZM409.008 39.344H487.728V53.68H409.008V39.344ZM408.752 69.552H488.24V84.016H408.752V69.552ZM400.176 9.77599H415.28V55.856C415.28 60.8907 415.067 66.3947 414.64 72.368C414.213 78.3413 413.36 84.3573 412.08 90.416C410.885 96.3893 409.051 102.107 406.576 107.568C404.187 113.029 401.029 117.893 397.104 122.16C396.336 121.136 395.184 119.984 393.648 118.704C392.112 117.424 390.533 116.187 388.912 114.992C387.376 113.797 386.053 112.859 384.944 112.176C388.443 108.336 391.216 104.112 393.264 99.504C395.312 94.8107 396.805 89.9893 397.744 85.04C398.768 80.0053 399.408 75.0133 399.664 70.064C400.005 65.0293 400.176 60.2507 400.176 55.728V9.77599ZM482.096 9.77599H497.456V103.344C497.456 107.44 496.944 110.597 495.92 112.816C494.896 115.12 493.061 116.869 490.416 118.064C487.856 119.259 484.571 120.027 480.56 120.368C476.549 120.709 471.6 120.837 465.712 120.752C465.456 118.704 464.816 116.229 463.792 113.328C462.768 110.427 461.744 107.995 460.72 106.032C463.195 106.117 465.669 106.203 468.144 106.288C470.619 106.288 472.795 106.288 474.672 106.288C476.635 106.288 478.043 106.288 478.896 106.288C480.091 106.288 480.901 106.075 481.328 105.648C481.84 105.221 482.096 104.411 482.096 103.216V9.77599ZM439.6 15.664H455.088V119.856H439.6V15.664Z" fill="#FAFAFA"/>
</svg>
